<svg width="17" height="24" fill="none" xmlns="http://www.w3.org/2000/svg"><path d="M16.632 13.44c-.086-2.27-.43-4.539-.43-6.808 0-1.85.344-3.783-.345-5.549 0-.168.086-.42.086-.588.172-.925-2.84-.42-3.271.42-.258.253-.43.505-.344.841 0 .084.086.168.086.252-.603 2.69-1.378 5.38-2.238 7.986-.345 1.009-.775 2.017-1.12 3.026-.516-.925-1.033-1.85-1.463-2.858C6.388 7.22 5.355 4.278 3.891 1.504 4.064.243 1.137.327.534 1.504-.155 2.933-.069 4.362.19 5.959c.258 1.765.344 3.447.344 5.212 0 3.362.344 6.725.344 10.087-.344.336-.43.757-.086 1.177l.517.504c.775.589 3.013.084 3.013-1.092 0-3.531-.258-6.978-.345-10.508V10.33c.087.084.087.252.173.336.516 1.345 1.119 2.69 1.893 3.951.775 1.261 1.12 2.606 1.55 3.951-.172.168-.258.42-.172.589 0 .168.086.252.258.336.517.504 1.636.252 2.152 0 .258-.084.517-.252.689-.336.258-.169.775-.589.603-1.01 0-.083-.087-.167-.087-.251.43-1.093.603-2.186.861-3.363s.689-2.353 1.12-3.53c.085.504.085 1.092.171 1.597.173 2.186 0 4.287 0 6.473 0 .756.087 1.345.173 2.101.086.252.344 1.513.258 1.597-.517.505-.344 1.093.344 1.177.775.168 1.808-.084 2.41-.588 1.034-.925.517-2.438.345-3.615-.517-2.017-.086-4.287-.086-6.305z" fill="#000"/></svg>