<svg width="66" height="94" fill="none" xmlns="http://www.w3.org/2000/svg"><path d="M64.571 52.642c-.334-8.89-1.671-17.78-1.671-26.669 0-7.243 1.337-14.815-1.337-21.73 0-.658.334-1.646.334-2.304.669-3.622-11.029-1.646-12.7 1.646-1.002.988-1.67 1.976-1.337 3.293 0 .329.335.658.335.987-2.34 10.536-5.348 21.072-8.69 31.278-1.337 3.95-3.008 7.902-4.345 11.853-2.005-3.622-4.01-7.244-5.681-11.195-4.68-11.523-8.69-23.046-14.371-33.911.668-4.939-10.695-4.61-13.035 0C-.6 11.487-.266 17.084.737 23.34c1.002 6.913 1.336 13.498 1.336 20.412 0 13.17 1.337 26.34 1.337 39.51-1.337 1.316-1.67 2.962-.334 4.609l2.005 1.975c3.008 2.305 11.698.33 11.698-4.28 0-13.828-1.003-27.327-1.337-41.155V40.46c.334.33.334.988.668 1.317 2.006 5.268 4.345 10.536 7.353 15.474 3.008 4.939 4.345 10.207 6.016 15.474-.669.659-1.003 1.647-.669 2.305 0 .659.335.988 1.003 1.317 2.005 1.976 6.35.988 8.355 0 1.003-.33 2.005-.988 2.674-1.317 1.003-.658 3.008-2.305 2.34-3.95 0-.33-.335-.66-.335-.988 1.671-4.28 2.34-8.56 3.342-13.17 1.003-4.61 2.674-9.219 4.345-13.828.334 1.975.334 4.28.669 6.255.668 8.56 0 16.792 0 25.352 0 2.963.334 5.268.668 8.23.334.989 1.337 5.927 1.003 6.257-2.006 1.975-1.337 4.28 1.336 4.609 3.008.658 7.019-.33 9.358-2.305 4.01-3.621 2.006-9.548 1.337-14.157-2.005-7.902-.334-16.791-.334-24.693z" fill="#000"/></svg>