<svg width="7" height="10" fill="none" xmlns="http://www.w3.org/2000/svg"><path d="M6.848 5.6c-.035-.945-.177-1.891-.177-2.837 0-.77.142-1.576-.142-2.312 0-.07.036-.175.036-.245.07-.385-1.17-.175-1.347.175-.106.105-.177.21-.142.35 0 .036.036.07.036.106a35.557 35.557 0 01-.922 3.327c-.142.42-.32.84-.46 1.261-.214-.385-.426-.77-.603-1.19C2.63 3.007 2.205 1.781 1.602.626 1.673.1.468.137.22.627c-.284.595-.248 1.19-.142 1.856.106.735.142 1.436.142 2.172 0 1.4.142 2.802.142 4.203-.142.14-.178.315-.036.49l.213.21c.319.245 1.24.035 1.24-.455 0-1.471-.106-2.907-.141-4.378v-.42c.035.034.035.104.07.14.213.56.461 1.12.78 1.646.32.525.461 1.085.639 1.646-.071.07-.107.175-.071.245 0 .07.035.105.106.14.213.21.673.105.886 0 .106-.035.213-.105.284-.14.106-.07.319-.245.248-.42 0-.035-.036-.07-.036-.105.178-.456.249-.911.355-1.401.106-.49.283-.981.46-1.472.036.21.036.456.072.666.07.91 0 1.786 0 2.697 0 .315.035.56.07.876.036.105.142.63.107.665-.213.21-.142.455.142.49.319.07.744-.035.992-.245.425-.385.213-1.016.142-1.506-.213-.84-.036-1.786-.036-2.627z" fill="#000"/></svg>